<svg width="233" height="40" viewBox="0 0 233 40" fill="none" xmlns="http://www.w3.org/2000/svg">
<g clip-path="url(#clip0)">
<path d="M52.82 23V9.112H55.984L56.264 11.464C56.6933 10.6427 57.3093 9.98933 58.112 9.504C58.9333 9.01867 59.8947 8.776 60.996 8.776C62.7133 8.776 64.048 9.31733 65 10.4C65.952 11.4827 66.428 13.0693 66.428 15.16V23H62.844V15.496C62.844 14.3013 62.6013 13.3867 62.116 12.752C61.6307 12.1173 60.8747 11.8 59.848 11.8C58.84 11.8 58.0093 12.1547 57.356 12.864C56.7213 13.5733 56.404 14.5627 56.404 15.832V23H52.82ZM83.2392 9.112V23H80.0752L79.7952 20.648C79.3658 21.4693 78.7405 22.1227 77.9192 22.608C77.1165 23.0933 76.1645 23.336 75.0632 23.336C73.3458 23.336 72.0112 22.7947 71.0592 21.712C70.1072 20.6293 69.6312 19.0427 69.6312 16.952V9.112H73.2152V16.616C73.2152 17.8107 73.4578 18.7253 73.9432 19.36C74.4285 19.9947 75.1845 20.312 76.2112 20.312C77.2192 20.312 78.0405 19.9573 78.6752 19.248C79.3285 18.5387 79.6552 17.5493 79.6552 16.28V9.112H83.2392ZM85.5743 23L90.6143 16.056L85.5743 9.112H89.4103L92.9383 14.04L96.4383 9.112H100.302L95.2343 16.056L100.302 23H96.4383L92.9383 18.072L89.4103 23H85.5743ZM108.774 23C107.318 23 106.151 22.6453 105.274 21.936C104.396 21.2267 103.958 19.9667 103.958 18.156V12.108H101.578V9.112H103.958L104.378 5.388H107.542V9.112H111.294V12.108H107.542V18.184C107.542 18.856 107.682 19.3227 107.962 19.584C108.26 19.8267 108.764 19.948 109.474 19.948H111.21V23H108.774ZM113.195 26.108L120.195 1.244H123.695L116.667 26.108H113.195Z" fill="black"/>
<path d="M131.896 23.336C130.664 23.336 129.581 23.14 128.648 22.748C127.715 22.3373 126.968 21.7773 126.408 21.068C125.848 20.3587 125.512 19.5373 125.4 18.604H129.012C129.124 19.1453 129.423 19.612 129.908 20.004C130.412 20.3773 131.056 20.564 131.84 20.564C132.624 20.564 133.193 20.4053 133.548 20.088C133.921 19.7707 134.108 19.4067 134.108 18.996C134.108 18.3987 133.847 17.9973 133.324 17.792C132.801 17.568 132.073 17.3533 131.14 17.148C130.543 17.0173 129.936 16.8587 129.32 16.672C128.704 16.4853 128.135 16.252 127.612 15.972C127.108 15.6733 126.697 15.3 126.38 14.852C126.063 14.3853 125.904 13.816 125.904 13.144C125.904 11.912 126.389 10.876 127.36 10.036C128.349 9.196 129.731 8.776 131.504 8.776C133.147 8.776 134.453 9.15867 135.424 9.924C136.413 10.6893 137.001 11.744 137.188 13.088H133.8C133.595 12.0613 132.82 11.548 131.476 11.548C130.804 11.548 130.281 11.6787 129.908 11.94C129.553 12.2013 129.376 12.528 129.376 12.92C129.376 13.3307 129.647 13.6573 130.188 13.9C130.729 14.1427 131.448 14.3667 132.344 14.572C133.315 14.796 134.201 15.048 135.004 15.328C135.825 15.5893 136.479 15.9907 136.964 16.532C137.449 17.0547 137.692 17.8107 137.692 18.8C137.711 19.6587 137.487 20.4333 137.02 21.124C136.553 21.8147 135.881 22.356 135.004 22.748C134.127 23.14 133.091 23.336 131.896 23.336ZM146.617 23C145.161 23 143.995 22.6453 143.117 21.936C142.24 21.2267 141.801 19.9667 141.801 18.156V12.108H139.421V9.112H141.801L142.221 5.388H145.385V9.112H149.137V12.108H145.385V18.184C145.385 18.856 145.525 19.3227 145.805 19.584C146.104 19.8267 146.608 19.948 147.317 19.948H149.053V23H146.617ZM152.215 23V9.112H155.407L155.743 11.716C156.247 10.82 156.928 10.1107 157.787 9.588C158.664 9.04667 159.691 8.776 160.867 8.776V12.556H159.859C159.075 12.556 158.375 12.6773 157.759 12.92C157.143 13.1627 156.657 13.5827 156.303 14.18C155.967 14.7773 155.799 15.608 155.799 16.672V23H152.215ZM168.104 23.336C166.909 23.336 165.929 23.1493 165.164 22.776C164.399 22.384 163.829 21.8707 163.456 21.236C163.083 20.6013 162.896 19.9013 162.896 19.136C162.896 17.848 163.4 16.8027 164.408 16C165.416 15.1973 166.928 14.796 168.944 14.796H172.472V14.46C172.472 13.508 172.201 12.808 171.66 12.36C171.119 11.912 170.447 11.688 169.644 11.688C168.916 11.688 168.281 11.8653 167.74 12.22C167.199 12.556 166.863 13.06 166.732 13.732H163.232C163.325 12.724 163.661 11.8467 164.24 11.1C164.837 10.3533 165.603 9.784 166.536 9.392C167.469 8.98133 168.515 8.776 169.672 8.776C171.651 8.776 173.209 9.27067 174.348 10.26C175.487 11.2493 176.056 12.6493 176.056 14.46V23H173.004L172.668 20.76C172.257 21.5067 171.679 22.1227 170.932 22.608C170.204 23.0933 169.261 23.336 168.104 23.336ZM168.916 20.536C169.943 20.536 170.736 20.2 171.296 19.528C171.875 18.856 172.239 18.0253 172.388 17.036H169.336C168.384 17.036 167.703 17.2133 167.292 17.568C166.881 17.904 166.676 18.324 166.676 18.828C166.676 19.3693 166.881 19.7893 167.292 20.088C167.703 20.3867 168.244 20.536 168.916 20.536ZM179.476 29.16V9.112H182.668L183.06 11.1C183.508 10.484 184.096 9.94267 184.824 9.476C185.571 9.00933 186.532 8.776 187.708 8.776C189.015 8.776 190.182 9.09333 191.208 9.728C192.235 10.3627 193.047 11.2307 193.644 12.332C194.242 13.4333 194.54 14.684 194.54 16.084C194.54 17.484 194.242 18.7347 193.644 19.836C193.047 20.9187 192.235 21.7773 191.208 22.412C190.182 23.028 189.015 23.336 187.708 23.336C186.663 23.336 185.748 23.14 184.964 22.748C184.18 22.356 183.546 21.8053 183.06 21.096V29.16H179.476ZM186.952 20.2C188.091 20.2 189.034 19.8173 189.78 19.052C190.527 18.2867 190.9 17.2973 190.9 16.084C190.9 14.8707 190.527 13.872 189.78 13.088C189.034 12.304 188.091 11.912 186.952 11.912C185.795 11.912 184.843 12.304 184.096 13.088C183.368 13.8533 183.004 14.8427 183.004 16.056C183.004 17.2693 183.368 18.268 184.096 19.052C184.843 19.8173 185.795 20.2 186.952 20.2ZM199.674 6.956C199.021 6.956 198.479 6.76 198.05 6.368C197.639 5.976 197.434 5.48133 197.434 4.884C197.434 4.28667 197.639 3.80133 198.05 3.428C198.479 3.036 199.021 2.84 199.674 2.84C200.327 2.84 200.859 3.036 201.27 3.428C201.699 3.80133 201.914 4.28667 201.914 4.884C201.914 5.48133 201.699 5.976 201.27 6.368C200.859 6.76 200.327 6.956 199.674 6.956ZM197.882 23V9.112H201.466V23H197.882Z" fill="#4E26E0"/>
<g opacity="0.974563">
<g opacity="0.974563">
<path opacity="0.974563" fill-rule="evenodd" clip-rule="evenodd" d="M26.4852 27.2029V14.2289C26.4852 13.7668 26.1106 13.3922 25.6485 13.3922H12.7402V0H38.9769C39.439 0 39.8136 0.374592 39.8136 0.836675V27.2029H26.4852Z" fill="#8E75FF"/>
<path opacity="0.404989" fill-rule="evenodd" clip-rule="evenodd" d="M12.7402 0V13.3922H0.418337C0.187296 13.3922 0 13.2049 0 12.9738C0 12.8632 0.0438012 12.7571 0.121823 12.6787L12.7402 0Z" fill="#8E75FF"/>
<path opacity="0.404989" fill-rule="evenodd" clip-rule="evenodd" d="M26.4852 39.5817V27.2029H39.8136L27.2 39.8768C27.037 40.0405 26.7722 40.0412 26.6084 39.8782C26.5295 39.7997 26.4852 39.693 26.4852 39.5817Z" fill="#8E75FF"/>
<path opacity="0.404989" fill-rule="evenodd" clip-rule="evenodd" d="M12.7402 13.3922H26.0668C26.2979 13.3922 26.4852 13.5795 26.4852 13.8105V27.2028H13.5769C13.1148 27.2028 12.7402 26.8283 12.7402 26.3662V13.3922Z" fill="#8E75FF"/>
</g>
</g>
</g>
<defs>
<clipPath id="clip0">
<rect width="233" height="40" fill="white"/>
</clipPath>
</defs>
</svg>
